<svg xmlns="http://www.w3.org/2000/svg" viewBox="19.5619 20.6881 56.7474 56.7474" width="108" height="108" role="img" aria-label="Nockerl Security">
  <title>Nockerl Security</title>
  
  <path d="M45.91 22.30C46.03 22.30 48.25 22.12 49.40 22.22C50.55 22.32 51.71 22.55 52.80 22.88C53.87 23.20 54.89 23.59 55.90 24.15C56.99 24.75 58.15 25.58 59.10 26.42C60.00 27.21 60.76 28.02 61.47 29.00C62.24 30.06 62.99 31.38 63.50 32.60C63.98 33.75 64.30 34.97 64.50 36.10C64.68 37.13 64.27 38.17 64.72 39.10C65.29 40.27 67.27 41.05 68.20 42.30C69.13 43.55 69.88 45.33 70.28 46.60C70.57 47.52 70.60 47.91 70.70 49.10C70.94 51.96 71.05 60.54 70.70 63.80C70.52 65.46 70.31 66.37 69.89 67.50C69.50 68.55 68.94 69.54 68.34 70.40C67.78 71.19 67.21 71.85 66.45 72.50C65.57 73.25 64.36 74.05 63.30 74.56C62.34 75.02 61.86 75.26 60.40 75.50C56.39 76.15 41.02 75.98 37.20 75.70C35.94 75.61 35.57 75.55 34.70 75.31C33.69 75.03 32.48 74.56 31.51 74.00C30.58 73.47 29.76 72.83 29.00 72.08C28.21 71.30 27.46 70.37 26.90 69.40C26.34 68.44 25.90 67.29 25.62 66.30C25.37 65.44 25.30 64.99 25.20 63.80C24.96 60.93 24.78 52.41 25.20 49.00C25.43 47.15 25.69 46.08 26.25 44.80C26.79 43.56 27.59 42.37 28.44 41.40C29.24 40.49 30.55 40.20 31.18 39.10C32.02 37.65 31.56 34.86 32.24 33.00C32.89 31.22 34.11 29.39 35.10 28.13C35.85 27.18 36.54 26.57 37.40 25.88C38.32 25.15 39.27 24.46 40.49 23.90C42.00 23.21 45.75 22.32 45.90 22.30C45.91 22.30 45.90 22.30 45.91 22.30Z" fill="none" stroke="#0891b2" stroke-width="2.5" stroke-linejoin="round"/>
  <g fill="none" stroke="#222222" stroke-width="3.6" stroke-linecap="round" stroke-linejoin="round"><rect x="33" y="45" width="30" height="23" rx="5"/>
   <path d="M39 45 L39 39 A9 9 0 0 1 57 39 L57 45"/>
   <circle cx="48" cy="54" r="2.6"/>
   <line x1="48" y1="57" x2="48" y2="61"/>
  </g>
</svg>
